# xmcd
#
# Track frame offsets:
#	150
#	13920
#	27570
#	44323
#	59486
#	74565
#	97074
#	113235
#	125403
#	141736
#	156289
#	173690
#
# Disc length: 2594 seconds
#
# Revision: 1
# Processed by: cddbd v1.5.2PL0 Copyright (c) Steve Scherf et al.
# Submitted via: EasyCDDAExtractor 16.0.6.1
#
DISCID=b80a200c
DTITLE=Rattlesnakes - One Step Further
DYEAR=2002
DGENRE=Country - Denmark
TTITLE0=Ring Of Fire
TTITLE1=King Of The Road
TTITLE2=Take It Easy
TTITLE3=Poor Boy Blues
TTITLE4=The Road To Where You Are
TTITLE5=The Boxer
TTITLE6=When It All Began
TTITLE7=Only You
TTITLE8=Just To See You Smile
TTITLE9=Thank God I'm A Countryboy
TTITLE10=Two Steps Back
TTITLE11=Rosie.cda
EXTD=
EXTT0=
EXTT1=
EXTT2=
EXTT3=
EXTT4=
EXTT5=
EXTT6=
EXTT7=
EXTT8=
EXTT9=
EXTT10=
EXTT11=
PLAYORDER=
